<?xml version="1.0" encoding="iso-8859-1"?>
<!-- Uploaded to: SVG Repo, www.svgrepo.com, Generator: SVG Repo Mixer Tools -->
<!DOCTYPE svg PUBLIC "-//W3C//DTD SVG 1.1//EN" "http://www.w3.org/Graphics/SVG/1.1/DTD/svg11.dtd">
<svg fill="#000000" height="800px" width="800px" version="1.1" id="Capa_1" xmlns="http://www.w3.org/2000/svg" xmlns:xlink="http://www.w3.org/1999/xlink" 
	 viewBox="0 0 59.957 59.957" xml:space="preserve">
<g>
	<path d="M24.047,34.684c0.195,0.195,0.451,0.293,0.707,0.293s0.512-0.098,0.707-0.293c0.391-0.391,0.391-1.023,0-1.414
		l-3.536-3.536l3.536-3.536c0.391-0.391,0.391-1.023,0-1.414s-1.023-0.391-1.414,0l-3.536,3.536l-3.536-3.536
		c-0.391-0.391-1.023-0.391-1.414,0s-0.391,1.023,0,1.414l3.536,3.536l-3.536,3.536c-0.391,0.391-0.391,1.023,0,1.414
		c0.195,0.195,0.451,0.293,0.707,0.293s0.512-0.098,0.707-0.293l3.536-3.536L24.047,34.684z"/>
	<path d="M45.976,24.785c-0.391-0.391-1.023-0.391-1.414,0l-3.536,3.536l-3.536-3.536c-0.391-0.391-1.023-0.391-1.414,0
		s-0.391,1.023,0,1.414l3.536,3.536l-3.536,3.536c-0.391,0.391-0.391,1.023,0,1.414c0.195,0.195,0.451,0.293,0.707,0.293
		s0.512-0.098,0.707-0.293l3.536-3.536l3.536,3.536c0.195,0.195,0.451,0.293,0.707,0.293s0.512-0.098,0.707-0.293
		c0.391-0.391,0.391-1.023,0-1.414l-3.536-3.536l3.536-3.536C46.366,25.808,46.366,25.176,45.976,24.785z"/>
	<path d="M42.269,38.977h-22c-0.553,0-1,0.447-1,1s0.447,1,1,1h11v6.801c0,2.757,2.243,5,5,5h1c2.757,0,5-2.243,5-5v-6.801
		c0.553,0,1-0.447,1-1S42.821,38.977,42.269,38.977z M40.269,47.778c0,1.654-1.346,3-3,3h-1c-1.654,0-3-1.346-3-3v-6.799
		l1.233,0.002c0.362,0,0.747,0.001,1.137,0.002c0.109,0.724,0.164,2.211,0.163,4.44v0.165c0,0.553,0.447,1,1,1s1-0.447,1-1v-0.164
		c0-0.9,0.001-2.262-0.067-3.435c-0.019-0.325-0.04-0.668-0.077-1.003c0.966,0.001,1.886,0.001,2.612-0.002V47.778z"/>
	<path d="M56.259,18.841c-0.563-4.082-2.323-7.605-4.825-9.668c-0.644-0.531-1.116-1.365-1.402-2.479
		c-0.827-3.209-3.847-5.451-7.694-5.714c-2.141-0.143-3.995,0.518-6.028,1.331c-0.071,0.028-0.153,0.027-0.277-0.05
		c-0.416-1.106-1.36-1.867-2.658-2.143c-3-0.63-7.635,1.31-11.353,4.692c0.006-0.891,0.191-1.687,0.695-1.938L24.4,2.029
		l-1.642-0.923c-1.736-0.979-5.926-2.038-9.334,0.944c-1.237,1.081-2.136,2.595-2.599,4.377c-0.095,0.364-0.191,0.755-0.277,1.139
		c-0.037,0.167-0.174,0.217-0.231,0.23c-0.109,0.025-0.197-0.001-0.298-0.122C9.485,7.022,8.675,6.703,7.85,6.818
		c-0.796,0.111-1.462,0.62-1.781,1.361C4.1,12.747,0.42,24.373,8.269,34.319v16.638c0,2.757,2.243,5,5,5h3v1.695
		c0,1.271,1.034,2.305,2.306,2.305h23.389c1.271,0,2.306-1.034,2.306-2.305v-1.695h3c2.757,0,5-2.243,5-5V34.372
		C53.44,33.054,57.492,27.761,56.259,18.841z M7.904,8.971c0.017-0.038,0.065-0.15,0.224-0.173c0.057-0.01,0.216-0.013,0.329,0.124
		l0.063,0.078c0.554,0.661,1.423,0.942,2.269,0.74c0.861-0.209,1.518-0.874,1.711-1.735c0.082-0.362,0.173-0.731,0.262-1.076
		c0.361-1.391,1.046-2.558,1.979-3.373c2.097-1.834,4.417-1.596,5.801-1.195c-0.5,0.948-0.648,2.28-0.419,3.913
		c0.076,0.538,0.444,0.979,0.96,1.149c0.521,0.169,1.088,0.035,1.477-0.358c3.809-3.867,8.204-5.451,10.399-4.99
		c0.94,0.199,1.137,0.72,1.201,0.892c0.198,0.524,0.598,0.941,1.124,1.173c0.556,0.244,1.2,0.254,1.768,0.028
		c1.864-0.747,3.426-1.317,5.148-1.192c2.366,0.161,5.156,1.353,5.894,4.216c0.395,1.533,1.09,2.719,2.067,3.524
		c1.003,0.827,3.412,3.3,4.117,8.398c0.768,5.555-0.699,9.517-2.01,11.811V18.957V17.23l-1.385,0.813
		c-0.041,0.017-0.083,0.028-0.122,0.051c-2.456,1.443-4.604,1.889-6.385,1.314c-2.215-0.712-3.178-2.82-3.192-2.853
		c-0.008-0.019-0.022-0.034-0.031-0.053l-0.186-0.431l-0.391-0.06c-0.051-0.017-0.101-0.036-0.155-0.044
		c-9.594-1.477-14.262,2.537-15.57,3.94c-6.965-0.755-9.986-2.757-10.013-2.774c-0.026-0.018-0.057-0.022-0.084-0.038l-0.656-0.455
		l-0.53,0.617c-0.017,0.017-0.04,0.026-0.057,0.045c-1.558,1.812-3.355,2.733-4.588,3.188c-0.04,0.015-0.071,0.041-0.108,0.06
		l-0.546,0.202v0.677v9.389C3.367,22.633,5.831,13.784,7.904,8.971z M42.269,57.652c0,0.168-0.137,0.305-0.306,0.305H18.574
		c-0.169,0-0.306-0.137-0.306-0.305v-1.695h24V57.652z M50.269,50.957c0,1.654-1.346,3-3,3h-3h-28h-3c-1.654,0-3-1.346-3-3V36.789
		V22.128c1.231-0.532,2.768-1.422,4.196-2.885c1.407,0.73,4.807,2.158,10.707,2.729l0.565,0.055l0.337-0.457
		c0.037-0.051,3.802-4.994,13.546-3.676c0.516,0.89,1.798,2.673,4.113,3.429c1.952,0.638,4.145,0.405,6.535-0.693v15.718V50.957z"/>
</g>
</svg>