<?xml version="1.0" standalone="no"?>
<!DOCTYPE svg PUBLIC "-//W3C//DTD SVG 20010904//EN"
 "http://www.w3.org/TR/2001/REC-SVG-20010904/DTD/svg10.dtd">
<svg version="1.0" xmlns="http://www.w3.org/2000/svg"
 width="1280.000000pt" height="1280.000000pt" viewBox="0 0 1280.000000 1280.000000"
 preserveAspectRatio="xMidYMid meet">
<g transform="translate(0.000000,1280.000000) scale(0.100000,-0.100000)"
fill="#000000" stroke="none">
<path d="M6210 12797 c-3 -3 -84 -10 -180 -17 -462 -30 -906 -101 -1302 -210
-1325 -363 -2473 -1120 -3337 -2200 -624 -781 -1072 -1754 -1265 -2745 -75
-387 -133 -1003 -123 -1300 35 -1042 251 -1924 683 -2787 1000 -1999 2999
-3344 5214 -3508 80 -6 192 -15 250 -20 134 -13 366 -13 500 0 58 5 170 14
250 20 1726 128 3340 973 4451 2330 823 1005 1324 2254 1419 3535 6 83 15 200
20 261 6 60 10 170 10 244 0 74 -4 184 -10 244 -5 61 -14 179 -20 261 -85
1140 -492 2262 -1165 3204 -405 568 -928 1090 -1496 1496 -790 564 -1708 944
-2659 1100 -174 28 -442 59 -660 76 -164 12 -572 24 -580 16z m440 -567 c576
-28 1070 -119 1595 -295 702 -235 1328 -586 1910 -1071 156 -130 467 -434 611
-596 806 -912 1299 -2021 1433 -3223 89 -793 12 -1610 -224 -2369 -230 -740
-596 -1411 -1111 -2031 -139 -167 -542 -570 -709 -709 -971 -805 -2069 -1253
-3330 -1357 -193 -16 -657 -16 -850 0 -1261 104 -2363 553 -3330 1357 -168
139 -571 542 -709 709 -615 742 -1016 1546 -1226 2458 -215 937 -192 1930 66
2857 334 1195 1033 2243 2022 3028 1078 856 2479 1307 3852 1242z"/>
<path d="M3750 9699 c-190 -20 -534 -98 -612 -140 -17 -9 -18 -28 -18 -279 0
-240 2 -270 16 -270 9 0 59 13 112 30 238 73 420 100 709 107 314 7 479 -10
771 -83 79 -19 188 -51 242 -70 55 -18 102 -34 105 -34 3 0 4 125 3 277 l-3
277 -95 34 c-196 70 -468 130 -689 152 -120 12 -419 11 -541 -1z"/>
<path d="M9560 9533 c-76 -27 -345 -143 -625 -271 -582 -264 -859 -370 -1120
-426 -66 -15 -130 -29 -142 -31 l-23 -5 0 -275 c0 -321 -20 -289 158 -249 285
64 528 157 1157 444 160 73 364 163 455 199 91 37 171 70 178 74 9 6 12 73 12
278 0 290 2 280 -50 262z"/>
<path d="M3967 8185 c-90 -25 -160 -67 -233 -139 -110 -109 -154 -215 -154
-365 1 -105 12 -157 53 -241 71 -144 226 -256 390 -282 250 -39 501 118 578
361 26 82 29 222 6 299 -54 180 -197 319 -377 367 -67 18 -198 18 -263 0z"/>
<path d="M8496 8185 c-179 -49 -318 -188 -372 -370 -24 -82 -22 -210 5 -296
77 -243 327 -399 579 -361 204 31 386 196 431 392 16 68 13 209 -5 271 -52
175 -197 317 -375 364 -67 18 -197 18 -263 0z"/>
<path d="M3815 4698 c-3 -13 -4 -165 -3 -338 l3 -315 2583 -3 2582 -2 -2 337
-3 338 -2577 3 -2578 2 -5 -22z"/>
</g>
</svg>
